<svg width="12" height="12" viewBox="0 0 12 12" fill="none" xmlns="http://www.w3.org/2000/svg">
<path d="M6.292 0.404958C6.23333 0.287624 6.149 0.194124 6.039 0.124457C5.929 0.0547905 5.808 0.0199575 5.676 0.0199575C5.544 0.0199575 5.42116 0.0547905 5.3075 0.124457C5.19383 0.194124 5.10766 0.287624 5.049 0.404958L3.674 3.25396L0.582997 3.70496C0.45833 3.71962 0.344664 3.76912 0.241997 3.85346C0.13933 3.93779 0.0696636 4.04229 0.032997 4.16696C-0.00366971 4.29162 -0.00733637 4.41812 0.021997 4.54646C0.0513303 4.67479 0.113664 4.78296 0.208997 4.87096L2.442 7.09296L1.914 10.217C1.892 10.349 1.90666 10.4736 1.958 10.591C2.00933 10.7083 2.08633 10.8073 2.189 10.888C2.29166 10.9686 2.409 11.0126 2.541 11.02C2.673 11.0273 2.79766 11.0016 2.915 10.943L5.676 9.46896L8.437 10.943C8.55433 11.0016 8.67716 11.0273 8.8055 11.02C8.93383 11.0126 9.053 10.9705 9.163 10.8935C9.273 10.8165 9.35183 10.7175 9.3995 10.5965C9.44716 10.4755 9.46 10.349 9.438 10.217L8.899 7.09296L11.143 4.87096C11.2383 4.78296 11.3007 4.67479 11.33 4.54646C11.3593 4.41812 11.352 4.29162 11.308 4.16696C11.264 4.04229 11.1943 3.93779 11.099 3.85346C11.0037 3.76912 10.89 3.71962 10.758 3.70496L7.678 3.25396L6.292 0.404958Z" fill="#FACC15"/>
</svg>
