<svg width="35" height="35" viewBox="0 0 35 35" fill="none" xmlns="http://www.w3.org/2000/svg">
<g clip-path="url(#clip0_1_1006)">
<path d="M2.01404 17.308C2.30871 17.308 2.56937 17.2004 2.79604 16.985C3.02271 16.7697 3.13604 16.492 3.13604 16.152V14.758C3.13604 13.9194 3.34571 13.1544 3.76504 12.463C4.18437 11.7717 4.74537 11.222 5.44804 10.814C6.15071 10.406 6.89871 10.202 7.69204 10.202H24.964L21.156 14.044C20.9294 14.248 20.816 14.503 20.816 14.809C20.816 15.115 20.9294 15.3814 21.156 15.608C21.3374 15.7894 21.564 15.88 21.836 15.88C21.972 15.88 22.108 15.8517 22.244 15.795C22.38 15.7384 22.482 15.676 22.55 15.608L28.228 9.93002C28.2734 9.88468 28.3187 9.82802 28.364 9.76002C28.4094 9.69202 28.4547 9.65802 28.5 9.65802C28.636 9.36335 28.636 9.08002 28.5 8.80802C28.5 8.71735 28.4717 8.64368 28.415 8.58702C28.3584 8.53035 28.296 8.50202 28.228 8.50202L22.55 2.85802C22.346 2.63135 22.091 2.51802 21.785 2.51802C21.479 2.51802 21.2127 2.63135 20.986 2.85802C20.7594 3.08468 20.6517 3.34535 20.663 3.64002C20.6744 3.93468 20.782 4.18402 20.986 4.38802L24.828 8.23002H7.69204C6.46804 8.23002 5.33471 8.53035 4.29204 9.13102C3.24937 9.73168 2.42204 10.5534 1.81004 11.596C1.19804 12.6387 0.892039 13.7833 0.892039 15.03V16.458C0.892039 16.6167 1.01104 16.798 1.24904 17.002C1.48704 17.206 1.74204 17.308 2.01404 17.308ZM27.514 17.988C27.2194 17.988 26.9587 18.0957 26.732 18.311C26.5054 18.5264 26.392 18.804 26.392 19.144V20.538C26.392 21.3767 26.1824 22.1417 25.763 22.833C25.3437 23.5244 24.7827 24.074 24.08 24.482C23.3774 24.89 22.6294 25.094 21.836 25.094H4.56404L8.40604 21.252C8.61004 21.048 8.71204 20.793 8.71204 20.487C8.71204 20.181 8.61004 19.9147 8.40604 19.688C8.20204 19.4614 7.94137 19.3537 7.62404 19.365C7.30671 19.3764 7.04604 19.484 6.84204 19.688L1.16404 25.366C1.11871 25.4114 1.07337 25.468 1.02804 25.536C0.982706 25.604 0.937372 25.638 0.892039 25.638C0.756039 25.9327 0.756039 26.216 0.892039 26.488C0.892039 26.5787 0.920372 26.6524 0.977039 26.709C1.03371 26.7657 1.09604 26.794 1.16404 26.794L6.84204 32.472C7.02337 32.6534 7.25571 32.744 7.53904 32.744C7.82237 32.744 8.05471 32.6534 8.23604 32.472C8.46271 32.2454 8.57604 31.979 8.57604 31.673C8.57604 31.367 8.46271 31.112 8.23604 30.908L4.42804 27.066H21.836C23.06 27.066 24.1934 26.7657 25.236 26.165C26.2787 25.5644 27.106 24.7427 27.718 23.7C28.33 22.6574 28.636 21.5127 28.636 20.266V18.838C28.636 18.634 28.5227 18.4414 28.296 18.26C28.0694 18.0787 27.8087 17.988 27.514 17.988Z" fill="#030712"/>
</g>
<defs>
<clipPath id="clip0_1_1006">
<rect width="34" height="34" fill="white" transform="matrix(1 0 0 -1 0.630005 34.58)"/>
</clipPath>
</defs>
</svg>
