<svg width="15" height="16" viewBox="0 0 15 16" fill="none" xmlns="http://www.w3.org/2000/svg">
<g clip-path="url(#clip0_1_760)">
<path d="M10.4725 8.96015L10.8925 6.24515H8.28247V4.49015C8.28247 4.07015 8.39247 3.73515 8.61247 3.48515C8.88247 3.17515 9.28247 3.02015 9.81247 3.02015H10.9975V0.710152L10.3375 0.620152C9.80747 0.560152 9.32747 0.530151 8.89747 0.530151C8.17747 0.530151 7.55247 0.672651 7.02247 0.957652C6.49247 1.24265 6.08247 1.66015 5.79247 2.21015C5.50247 2.76015 5.35747 3.42015 5.35747 4.19015V6.24515H2.97247V8.96015H5.35747V15.5302H8.28247V8.96015H10.4725Z" fill="#1877F2"/>
</g>
<defs>
<clipPath id="clip0_1_760">
<rect width="15" height="15" fill="white" transform="matrix(1 0 0 -1 0 15.5302)"/>
</clipPath>
</defs>
</svg>
