<svg width="19" height="18" viewBox="0 0 19 18" fill="none" xmlns="http://www.w3.org/2000/svg">
<path d="M13.491 0.97998C12.7284 0.97998 11.9987 1.14498 11.302 1.47498C10.6054 1.80498 10.0224 2.24865 9.55304 2.80598C9.09837 2.21931 8.52637 1.76831 7.83704 1.45298C7.14771 1.13765 6.40704 0.97998 5.61504 0.97998C4.72037 0.97998 3.88437 1.19998 3.10704 1.63998C2.35904 2.06531 1.76504 2.64465 1.32504 3.37798C0.885039 4.11131 0.665039 4.90331 0.665039 5.75398C0.665039 7.35265 1.09771 8.92931 1.96304 10.484C2.65237 11.7306 3.61304 12.9406 4.84504 14.114C5.72504 14.9646 6.70771 15.7493 7.79304 16.468C8.46771 16.9373 8.96637 17.2453 9.28904 17.392C9.34771 17.4506 9.43571 17.48 9.55304 17.48C9.67037 17.48 9.79504 17.4506 9.92704 17.392C10.279 17.216 10.7777 16.908 11.423 16.468C12.4937 15.7493 13.4764 14.9646 14.371 14.114C15.5884 12.9406 16.5417 11.7306 17.231 10.484C18.0964 8.92931 18.529 7.35265 18.529 5.75398C18.529 4.90331 18.3017 4.11131 17.847 3.37798C17.3924 2.64465 16.7764 2.06165 15.999 1.62898C15.2217 1.19631 14.3857 0.97998 13.491 0.97998ZM9.55304 16.006C8.61437 15.434 7.74904 14.8253 6.95704 14.18C5.56371 13.0506 4.46371 11.8846 3.65704 10.682C2.57171 9.08331 2.02904 7.46998 2.02904 5.84198C2.02904 5.21131 2.19404 4.62831 2.52404 4.09298C2.85404 3.55765 3.29404 3.13231 3.84404 2.81698C4.39404 2.50165 4.98437 2.34398 5.61504 2.34398C6.34837 2.34398 7.01204 2.53465 7.60604 2.91598C8.20004 3.29731 8.63637 3.81065 8.91504 4.45598C8.97371 4.60265 9.08737 4.70531 9.25604 4.76398C9.42471 4.82265 9.60071 4.82265 9.78404 4.76398C9.96737 4.70531 10.103 4.60265 10.191 4.45598C10.4697 3.81065 10.9097 3.29731 11.511 2.91598C12.1124 2.53465 12.7724 2.34398 13.491 2.34398C14.151 2.34398 14.756 2.50165 15.306 2.81698C15.856 3.13231 16.2887 3.55765 16.604 4.09298C16.9194 4.62831 17.077 5.21131 17.077 5.84198C17.077 7.44065 16.5344 9.03931 15.449 10.638C14.6277 11.8406 13.5277 13.014 12.149 14.158C11.3277 14.8326 10.4624 15.4486 9.55304 16.006Z" fill="#030712"/>
</svg>
