<svg width="41" height="42" viewBox="0 0 41 42" fill="none" xmlns="http://www.w3.org/2000/svg">
<path d="M39.31 27.69C38.8767 27.69 38.4933 27.84 38.16 28.14C37.8267 28.44 37.66 28.84 37.66 29.34V35.59L27.86 25.79C27.5267 25.49 27.1433 25.34 26.71 25.34C26.2767 25.34 25.8933 25.49 25.56 25.79C25.2267 26.09 25.0683 26.4734 25.085 26.94C25.1017 27.4067 25.26 27.79 25.56 28.09L35.36 37.89H29.11C28.6767 37.89 28.2933 38.0484 27.96 38.365C27.6267 38.6817 27.46 39.0817 27.46 39.565C27.46 40.0484 27.61 40.4484 27.91 40.765C28.21 41.0817 28.61 41.24 29.11 41.24H39.31C39.5767 41.24 39.7933 41.1734 39.96 41.04C40.06 41.04 40.1517 40.99 40.235 40.89C40.3183 40.79 40.36 40.69 40.36 40.59C40.36 40.49 40.4017 40.3984 40.485 40.315C40.5683 40.2317 40.66 40.19 40.76 40.19C40.76 40.1234 40.7933 40.0234 40.86 39.89C40.9267 39.7567 40.96 39.64 40.96 39.54V29.54C40.96 28.94 40.8017 28.4817 40.485 28.165C40.1683 27.8484 39.7767 27.69 39.31 27.69ZM13.26 25.59L3.46 35.39V29.14C3.46 28.7067 3.31 28.3234 3.01 27.99C2.71 27.6567 2.30167 27.49 1.785 27.49C1.26834 27.49 0.868337 27.6317 0.585004 27.915C0.30167 28.1984 0.160004 28.6067 0.160004 29.14V39.14C0.160004 39.4067 0.22667 39.6234 0.360004 39.79C0.360004 39.89 0.40167 39.9817 0.485004 40.065C0.568337 40.1484 0.660004 40.19 0.760004 40.19C0.860004 40.19 0.960004 40.2317 1.06 40.315C1.16 40.3984 1.21 40.49 1.21 40.59C1.27667 40.59 1.37667 40.6234 1.51 40.69C1.64334 40.7567 1.74334 40.79 1.81 40.79H11.81C12.2433 40.79 12.6267 40.64 12.96 40.34C13.2933 40.04 13.46 39.6317 13.46 39.115C13.46 38.5984 13.3183 38.1984 13.035 37.915C12.7517 37.6317 12.3433 37.49 11.81 37.49H5.56L15.36 27.69C15.66 27.3567 15.81 26.965 15.81 26.515C15.81 26.065 15.66 25.69 15.36 25.39C15.06 25.09 14.7183 24.9734 14.335 25.04C13.9517 25.1067 13.5933 25.29 13.26 25.59ZM40.76 0.990021C40.76 0.890018 40.7183 0.798355 40.635 0.715019C40.5517 0.631687 40.46 0.590019 40.36 0.590019C40.26 0.590019 40.1683 0.548355 40.085 0.465019C40.0017 0.381687 39.96 0.29002 39.96 0.190022C39.86 0.190022 39.7433 0.156689 39.61 0.0900192C39.4767 0.0233536 39.3767 -0.00997925 39.31 -0.00997925H29.31C28.8767 -0.00997925 28.4933 0.140018 28.16 0.440022C27.8267 0.740021 27.66 1.14835 27.66 1.66502C27.66 2.18169 27.8017 2.58169 28.085 2.86502C28.3683 3.14835 28.7767 3.29002 29.31 3.29002H35.56L25.76 13.09C25.46 13.4234 25.31 13.8067 25.31 14.24C25.31 14.6734 25.46 15.0567 25.76 15.39C25.86 15.49 26.01 15.5817 26.21 15.665C26.41 15.7484 26.61 15.79 26.81 15.79C27.01 15.79 27.21 15.7484 27.41 15.665C27.61 15.5817 27.76 15.49 27.86 15.39L37.66 5.59002V11.84C37.66 12.2734 37.81 12.6567 38.11 12.99C38.41 13.3234 38.8183 13.49 39.335 13.49C39.8517 13.49 40.2517 13.3484 40.535 13.065C40.8183 12.7817 40.96 12.3734 40.96 11.84V1.64002C40.96 1.57335 40.9267 1.47335 40.86 1.34002C40.7933 1.20669 40.76 1.09002 40.76 0.990021ZM5.56 3.29002H11.81C12.2433 3.29002 12.6267 3.14002 12.96 2.84002C13.2933 2.54002 13.46 2.14002 13.46 1.64002C13.46 1.14002 13.3017 0.773354 12.985 0.54002C12.6683 0.306686 12.2767 0.190022 11.81 0.190022H1.81C1.54334 0.190022 1.34334 0.256687 1.21 0.390018C1.07667 0.390018 0.968337 0.431686 0.885004 0.515018C0.80167 0.598354 0.760004 0.681686 0.760004 0.765018C0.760004 0.848354 0.693337 0.890018 0.560004 0.890018C0.42667 0.890018 0.360004 0.931686 0.360004 1.01502C0.360004 1.09835 0.32667 1.20669 0.260004 1.34002C0.193337 1.47335 0.160004 1.57335 0.160004 1.64002V11.64C0.160004 12.0734 0.310004 12.4567 0.610004 12.79C0.910004 13.1234 1.31834 13.29 1.835 13.29C2.35167 13.29 2.75167 13.1484 3.035 12.865C3.31834 12.5817 3.46 12.1734 3.46 11.64V5.39002L13.26 15.19C13.36 15.39 13.51 15.54 13.71 15.64C13.91 15.74 14.11 15.79 14.31 15.79C14.51 15.79 14.71 15.7484 14.91 15.665C15.11 15.5817 15.26 15.49 15.36 15.39C15.66 15.0567 15.81 14.6734 15.81 14.24C15.81 13.8067 15.66 13.4234 15.36 13.09L5.56 3.29002Z" fill="black" fill-opacity="0.7"/>
</svg>
