<svg width="17" height="17" viewBox="0 0 17 17" fill="none" xmlns="http://www.w3.org/2000/svg">
<path d="M8.668 4.43021C8.01734 4.43021 7.41734 4.59287 6.868 4.91821C6.31867 5.24354 5.88134 5.68087 5.556 6.23021C5.23067 6.77954 5.068 7.37954 5.068 8.03021C5.068 8.68087 5.23067 9.28087 5.556 9.83021C5.88134 10.3795 6.31867 10.8142 6.868 11.1342C7.41734 11.4542 8.01734 11.6142 8.668 11.6142C9.31867 11.6142 9.91867 11.4542 10.468 11.1342C11.0173 10.8142 11.452 10.3795 11.772 9.83021C12.092 9.28087 12.252 8.68087 12.252 8.03021C12.252 7.37954 12.092 6.77954 11.772 6.23021C11.452 5.68087 11.0173 5.24354 10.468 4.91821C9.91867 4.59287 9.31867 4.43021 8.668 4.43021ZM8.668 10.3662C8.24134 10.3662 7.84934 10.2622 7.492 10.0542C7.13467 9.84621 6.852 9.56087 6.644 9.19821C6.436 8.83554 6.332 8.44621 6.332 8.03021C6.332 7.61421 6.436 7.22487 6.644 6.86221C6.852 6.49954 7.13467 6.21421 7.492 6.00621C7.84934 5.79821 8.24134 5.69421 8.668 5.69421C9.09467 5.69421 9.48667 5.79821 9.844 6.00621C10.2013 6.21421 10.484 6.49687 10.692 6.85421C10.9 7.21154 11.004 7.60354 11.004 8.03021C11.004 8.45687 10.9 8.84887 10.692 9.20621C10.484 9.56354 10.1987 9.84621 9.836 10.0542C9.47334 10.2622 9.084 10.3662 8.668 10.3662ZM13.244 4.28621C13.244 4.52087 13.1613 4.72087 12.996 4.88621C12.8307 5.05154 12.6307 5.13421 12.396 5.13421C12.1613 5.13421 11.964 5.05154 11.804 4.88621C11.644 4.72087 11.564 4.52087 11.564 4.28621C11.564 4.05154 11.644 3.85421 11.804 3.69421C11.964 3.53421 12.1613 3.45421 12.396 3.45421C12.6307 3.45421 12.8307 3.53421 12.996 3.69421C13.1613 3.85421 13.244 4.05154 13.244 4.28621ZM15.612 5.13421C15.5907 4.52621 15.5 3.99821 15.34 3.55021C15.1587 3.03821 14.8733 2.59021 14.484 2.20621C14.0947 1.82221 13.644 1.53954 13.132 1.35821C12.684 1.19821 12.156 1.10221 11.548 1.07021C10.972 1.03821 10.0093 1.02221 8.66 1.02221C7.31067 1.02221 6.348 1.03821 5.772 1.07021C5.15334 1.10221 4.62534 1.19821 4.188 1.35821C3.676 1.53954 3.228 1.82221 2.844 2.20621C2.46 2.59021 2.17734 3.03821 1.996 3.55021C1.82534 3.99821 1.72934 4.52621 1.708 5.13421C1.676 5.71021 1.66 6.67287 1.66 8.02221C1.66 9.37154 1.676 10.3342 1.708 10.9102C1.72934 11.5182 1.82 12.0462 1.98 12.4942C2.16134 13.0062 2.44934 13.4595 2.844 13.8542C3.23867 14.2489 3.692 14.5315 4.204 14.7022C4.63067 14.8622 5.15334 14.9529 5.772 14.9742C6.348 15.0169 7.31067 15.0382 8.66 15.0382C10.0093 15.0382 10.972 15.0169 11.548 14.9742C12.156 14.9529 12.684 14.8622 13.132 14.7022C13.644 14.5209 14.0947 14.2355 14.484 13.8462C14.8733 13.4569 15.1587 13.0062 15.34 12.4942C15.5 12.0462 15.5907 11.5182 15.612 10.9102C15.644 10.3342 15.66 9.37421 15.66 8.03021C15.66 6.68621 15.644 5.72087 15.612 5.13421ZM14.124 12.1582C14.0067 12.4569 13.8333 12.7235 13.604 12.9582C13.3747 13.1929 13.1053 13.3689 12.796 13.4862C12.444 13.6249 11.8733 13.7155 11.084 13.7582C10.636 13.7795 9.99067 13.7849 9.148 13.7742H8.188C7.34534 13.7849 6.7 13.7795 6.252 13.7582C5.452 13.7155 4.88134 13.6249 4.54 13.4862C4.23067 13.3689 3.96134 13.1955 3.732 12.9662C3.50267 12.7369 3.32934 12.4675 3.212 12.1582C3.07334 11.8062 2.98267 11.2355 2.94 10.4462C2.91867 9.99821 2.91334 9.35287 2.924 8.51021V7.55021C2.91334 6.70754 2.91867 6.06221 2.94 5.61421C2.98267 4.81421 3.07334 4.24354 3.212 3.90221C3.32934 3.59287 3.50267 3.32354 3.732 3.09421C3.96134 2.86487 4.23067 2.69154 4.54 2.57421C4.88134 2.43554 5.44667 2.34487 6.236 2.30221C6.684 2.28087 7.33467 2.27554 8.188 2.28621H9.148C9.99067 2.27554 10.636 2.28087 11.084 2.30221C11.8733 2.34487 12.444 2.43554 12.796 2.57421C13.1053 2.69154 13.3747 2.86487 13.604 3.09421C13.8333 3.32354 14.0067 3.59287 14.124 3.90221C14.2627 4.24354 14.3533 4.80887 14.396 5.59821C14.4173 6.04621 14.4227 6.69687 14.412 7.55021V8.51021C14.4227 9.35287 14.4173 9.99821 14.396 10.4462C14.3533 11.2355 14.2627 11.8062 14.124 12.1582Z" fill="#FD1D1D"/>
</svg>
