<svg width="15" height="16" viewBox="0 0 15 16" fill="none" xmlns="http://www.w3.org/2000/svg">
<g clip-path="url(#clip0_1_769)">
<path d="M4.0375 13.6552H1.3225V4.89515H4.0375V13.6552ZM2.6725 3.69515C2.3925 3.69515 2.13 3.62265 1.885 3.47765C1.64 3.33265 1.4475 3.14015 1.3075 2.90015C1.1675 2.66015 1.0975 2.39515 1.0975 2.10515C1.0975 1.81515 1.1675 1.55015 1.3075 1.31015C1.4475 1.07015 1.6375 0.880152 1.8775 0.740151C2.1175 0.600152 2.3825 0.530151 2.6725 0.530151C2.9625 0.530151 3.2275 0.600152 3.4675 0.740151C3.7075 0.880152 3.8975 1.07015 4.0375 1.31015C4.1775 1.55015 4.2475 1.81515 4.2475 2.10515C4.2475 2.39515 4.1775 2.66015 4.0375 2.90015C3.8975 3.14015 3.705 3.33265 3.46 3.47765C3.215 3.62265 2.9525 3.69515 2.6725 3.69515ZM14.2225 13.6552H11.5075V9.39515C11.5075 8.93515 11.4875 8.58515 11.4475 8.34515C11.3875 7.95515 11.2625 7.65515 11.0725 7.44515C10.8525 7.19515 10.5275 7.07015 10.0975 7.07015C9.4475 7.07015 8.9975 7.30015 8.7475 7.76015C8.5575 8.11015 8.4625 8.63015 8.4625 9.32015V13.6552H5.7475V4.89515H8.3575V6.08015H8.3875C8.5875 5.70015 8.8975 5.38015 9.3175 5.12015C9.7975 4.82015 10.3475 4.67015 10.9675 4.67015C11.8375 4.67015 12.5275 4.85515 13.0375 5.22515C13.4875 5.55515 13.8025 6.05015 13.9825 6.71015C14.1425 7.26015 14.2225 7.97015 14.2225 8.84015V13.6552Z" fill="#0077B5"/>
</g>
<defs>
<clipPath id="clip0_1_769">
<rect width="15" height="15" fill="white" transform="matrix(1 0 0 -1 0 15.5302)"/>
</clipPath>
</defs>
</svg>
