<svg width="18" height="18" viewBox="0 0 18 18" fill="none" xmlns="http://www.w3.org/2000/svg">
<g clip-path="url(#clip0_1_985)">
<path d="M11.149 8.0871H6.74603V3.6161C6.74603 3.46877 6.69503 3.33844 6.59303 3.2251C6.49103 3.11177 6.35503 3.0551 6.18503 3.0551C6.01503 3.0551 5.87903 3.11177 5.77703 3.2251C5.67503 3.33844 5.62403 3.46877 5.62403 3.6161V8.0191H1.22103C1.0737 8.0191 0.943368 8.0701 0.830034 8.1721C0.716701 8.2741 0.660034 8.41294 0.660034 8.5886C0.660034 8.76427 0.711034 8.90027 0.813034 8.9966C0.915034 9.09294 1.05103 9.1411 1.22103 9.1411H5.62403V13.5441C5.62403 13.6914 5.67503 13.8218 5.77703 13.9351C5.87903 14.0484 6.01787 14.1051 6.19353 14.1051C6.3692 14.1051 6.5052 14.0541 6.60153 13.9521C6.69787 13.8501 6.74603 13.7141 6.74603 13.5441V9.1411H11.149C11.2964 9.1411 11.4267 9.0901 11.54 8.9881C11.6534 8.8861 11.71 8.7501 11.71 8.5801C11.71 8.4101 11.6562 8.28544 11.5485 8.2061C11.4409 8.12677 11.3077 8.0871 11.149 8.0871Z" fill="#030712"/>
</g>
<defs>
<clipPath id="clip0_1_985">
<rect width="17" height="17" fill="white" transform="matrix(1 0 0 -1 0.5 17.0801)"/>
</clipPath>
</defs>
</svg>
