<svg width="19" height="17" viewBox="0 0 19 17" fill="none" xmlns="http://www.w3.org/2000/svg">
<path d="M8.7754 16.6839C8.96522 16.7569 9.14044 16.7934 9.30106 16.7934C9.46168 16.7934 9.6442 16.7496 9.84862 16.662C12.0389 15.7713 13.8422 14.6324 15.2585 13.2452C16.5434 11.9749 17.4487 10.5804 17.9744 9.06188C18.4417 7.64553 18.5439 6.26568 18.281 4.92233C18.1642 4.07544 17.8612 3.30886 17.3721 2.62258C16.8829 1.93631 16.2697 1.3924 15.5323 0.990855C14.7949 0.589312 13.9955 0.381239 13.134 0.366636C11.7322 0.410442 10.4473 0.841188 9.27916 1.65888L9.30106 1.63698C8.7462 1.25733 8.15483 0.958001 7.52697 0.738977C6.86989 0.505352 6.19822 0.381239 5.51195 0.366636H5.49004C4.61395 0.366636 3.79991 0.571058 3.04793 0.979904C2.29595 1.38875 1.67538 1.93996 1.18623 2.63353C0.697072 3.32711 0.40139 4.09734 0.299179 4.94424V4.96614C0.0363501 6.32409 0.145862 7.71124 0.627715 9.12759C1.13877 10.6462 2.03677 12.0333 3.32171 13.289C4.75266 14.6762 6.57056 15.8078 8.7754 16.6839ZM2.00756 5.33848C2.06597 4.75441 2.25579 4.22146 2.57703 3.7396C2.89826 3.25775 3.31441 2.87811 3.82546 2.60068C4.33652 2.32325 4.89138 2.18454 5.49004 2.18454C6.77498 2.27214 7.89201 2.70289 8.84111 3.47678H8.81921L9.30106 3.82721L9.80481 3.45487C10.2721 3.07523 10.7831 2.7832 11.338 2.57878C11.9074 2.34515 12.4988 2.21374 13.1121 2.18454H13.134C13.718 2.19914 14.262 2.34515 14.7657 2.62258C15.2695 2.90001 15.6856 3.276 16.0141 3.75056C16.3427 4.22511 16.5361 4.74711 16.5946 5.31658V5.33848C16.799 6.4044 16.6895 7.51412 16.266 8.66764C15.8134 9.89418 15.0322 11.0258 13.9225 12.0625C12.7105 13.2306 11.1701 14.1943 9.30106 14.9536C7.43206 14.2235 5.88429 13.2744 4.65775 12.1063C3.54803 11.0696 2.76685 9.93068 2.3142 8.68954C1.89075 7.53602 1.78854 6.419 2.00756 5.33848Z" fill="#030712"/>
</svg>
